<svg xmlns="http://www.w3.org/2000/svg" xmlns:xlink="http://www.w3.org/1999/xlink" width="1889" zoomAndPan="magnify" viewBox="0 0 1417.5 1417.500002" height="1889" preserveAspectRatio="xMidYMid meet" version="1.0"><defs><clipPath id="9d3c1f1654"><path d="M 0 0 L 1417 0 L 1417 1417 L 0 1417 Z M 0 0 " clip-rule="nonzero"/></clipPath><clipPath id="324124203b"><path d="M 237 257.179688 L 1180 257.179688 L 1180 1160.179688 L 237 1160.179688 Z M 237 257.179688 " clip-rule="nonzero"/></clipPath></defs><g clip-path="url(#9d3c1f1654)"><path fill="#ffffff" d="M 0 0 L 1417.5 0 L 1417.5 1425 L 0 1425 Z M 0 0 " fill-opacity="1" fill-rule="nonzero"/><path fill="#ffffff" d="M 0 0 L 1417.5 0 L 1417.5 1417.5 L 0 1417.5 Z M 0 0 " fill-opacity="1" fill-rule="nonzero"/><path fill="#ffffff" d="M 0 0 L 1417.5 0 L 1417.5 1417.5 L 0 1417.5 Z M 0 0 " fill-opacity="1" fill-rule="nonzero"/></g><g clip-path="url(#324124203b)"><path fill="#000000" d="M 1152.679688 257.644531 C 1151.226562 257.664062 1149.730469 257.792969 1148.300781 258.046875 L 1148.21875 258.046875 L 1003.921875 282.695312 C 994.746094 284.269531 987.054688 290.5625 983.65625 299.234375 C 983.65625 299.257812 983.65625 299.285156 983.65625 299.3125 L 916.699219 471.023438 L 263.21875 487.316406 C 255.707031 487.503906 248.652344 490.898438 243.765625 496.558594 C 238.878906 502.21875 236.527344 509.746094 237.441406 517.234375 L 273.515625 815.648438 C 275.003906 828.171875 285.347656 838.097656 297.914062 839.078125 L 763.789062 876.128906 L 856.125 948.765625 C 856.230469 948.851562 856.335938 948.933594 856.449219 949.011719 C 856.546875 949.078125 856.671875 949.105469 856.773438 949.171875 C 856.871094 949.238281 856.980469 949.339844 857.097656 949.414062 C 873.945312 961.992188 878.121094 979.128906 875.742188 988.652344 C 874.382812 994.082031 872.3125 998.066406 867.390625 1001.136719 C 862.46875 1004.210938 853.96875 1006.433594 839.425781 1005.597656 C 839.371094 1005.597656 839.316406 1005.597656 839.261719 1005.597656 C 838.792969 1005.582031 838.269531 1005.585938 837.800781 1005.597656 L 837.558594 1005.597656 L 281.929688 1007.21875 L 281.847656 1007.21875 C 267.246094 1007.125 254.957031 1019.375 255.015625 1033.972656 C 255.074219 1048.566406 267.410156 1060.773438 282.011719 1060.5625 L 282.089844 1060.5625 L 322.703125 1060.480469 C 307.613281 1070.101562 297.492188 1086.929688 297.492188 1106.042969 C 297.492188 1135.769531 321.839844 1160.117188 351.5625 1160.117188 C 381.289062 1160.117188 405.632812 1135.769531 405.632812 1106.042969 C 405.632812 1086.824219 395.488281 1069.832031 380.261719 1060.238281 L 837.808594 1058.941406 C 821.324219 1068.234375 810.082031 1085.878906 810.082031 1106.042969 C 810.082031 1135.769531 834.425781 1160.117188 864.152344 1160.117188 C 893.878906 1160.117188 918.222656 1135.769531 918.222656 1106.042969 C 918.222656 1080.226562 899.886719 1058.460938 875.582031 1053.183594 C 898.558594 1045.054688 916.210938 1028.292969 927.140625 1002.675781 C 927.300781 1002.363281 927.4375 1002.039062 927.546875 1001.703125 C 935.925781 968.195312 921.0625 931.765625 890.417969 908.066406 C 890.339844 907.984375 890.257812 907.902344 890.175781 907.824219 C 890.101562 907.765625 890.085938 907.636719 890.015625 907.578125 C 889.746094 907.253906 889.449219 906.957031 889.121094 906.6875 L 823.703125 855.371094 L 1027.742188 332.707031 L 1157.203125 310.65625 L 1157.285156 310.65625 C 1170.882812 308.46875 1180.832031 295.792969 1179.660156 282.039062 C 1178.484375 268.257812 1166.476562 257.449219 1152.664062 257.636719 Z M 896.996094 512.203125 L 859.382812 608.679688 L 810.339844 608.679688 L 810.339844 514.394531 L 896.996094 512.207031 Z M 791.613281 514.878906 L 791.613281 608.679688 L 701.0625 608.679688 L 701.0625 517.148438 Z M 682.335938 517.554688 L 682.335938 608.679688 L 591.785156 608.679688 L 591.785156 519.824219 Z M 573.058594 520.3125 L 573.058594 608.675781 L 482.511719 608.675781 L 482.511719 522.578125 L 573.058594 520.308594 Z M 463.785156 523.066406 L 463.785156 608.679688 L 373.234375 608.679688 L 373.234375 525.339844 Z M 354.507812 525.742188 L 354.507812 608.679688 L 288.113281 608.679688 L 278.304688 527.6875 Z M 290.382812 627.324219 L 354.507812 627.324219 L 354.507812 712.042969 L 300.597656 712.042969 L 290.386719 627.324219 Z M 373.234375 627.324219 L 463.785156 627.324219 L 463.785156 712.042969 L 373.234375 712.042969 Z M 482.511719 627.324219 L 573.058594 627.324219 L 573.058594 712.042969 L 482.511719 712.042969 Z M 591.785156 627.324219 L 682.335938 627.324219 L 682.335938 712.042969 L 591.785156 712.042969 Z M 701.0625 627.324219 L 791.613281 627.324219 L 791.613281 712.042969 L 701.0625 712.042969 Z M 810.339844 627.324219 L 852.167969 627.324219 L 819.09375 712.042969 L 810.339844 712.042969 Z M 302.882812 730.691406 L 354.519531 730.691406 L 354.519531 791.492188 L 309.773438 787.925781 Z M 373.246094 730.691406 L 463.796875 730.691406 L 463.796875 800.167969 L 373.246094 792.953125 L 373.246094 730.6875 Z M 482.523438 730.691406 L 573.074219 730.691406 L 573.074219 808.84375 L 482.523438 801.707031 Z M 591.800781 730.691406 L 682.347656 730.691406 L 682.347656 817.597656 L 591.800781 810.382812 L 591.800781 730.6875 Z M 701.074219 730.691406 L 791.625 730.691406 L 791.625 782.25 L 774.4375 826.273438 C 772.207031 825.191406 769.777344 824.527344 767.304688 824.328125 L 701.074219 819.058594 Z M 810.351562 730.691406 L 811.730469 730.691406 L 810.351562 734.5 Z M 351.613281 1074.273438 C 369.28125 1074.273438 383.390625 1088.382812 383.390625 1106.054688 C 383.390625 1123.722656 369.28125 1137.753906 351.613281 1137.753906 C 333.945312 1137.753906 319.835938 1123.722656 319.835938 1106.054688 C 319.835938 1088.382812 333.945312 1074.273438 351.613281 1074.273438 Z M 864.179688 1074.273438 C 881.847656 1074.273438 895.957031 1088.382812 895.957031 1106.054688 C 895.957031 1123.722656 881.847656 1137.753906 864.179688 1137.753906 C 846.511719 1137.753906 832.402344 1123.722656 832.402344 1106.054688 C 832.402344 1088.382812 846.511719 1074.273438 864.179688 1074.273438 Z M 351.613281 1089.351562 C 342.015625 1089.351562 334.34375 1097.019531 334.34375 1106.621094 C 334.34375 1116.21875 342.015625 1123.808594 351.613281 1123.808594 C 361.210938 1123.808594 368.878906 1116.21875 368.878906 1106.621094 C 368.878906 1097.019531 361.210938 1089.351562 351.613281 1089.351562 Z M 864.179688 1089.351562 C 854.582031 1089.351562 846.914062 1097.019531 846.914062 1106.621094 C 846.914062 1116.21875 854.582031 1123.808594 864.179688 1123.808594 C 873.777344 1123.808594 881.445312 1116.21875 881.445312 1106.621094 C 881.445312 1097.019531 873.777344 1089.351562 864.179688 1089.351562 Z M 864.179688 1089.351562 " fill-opacity="1" fill-rule="nonzero"/></g></svg>